<?xml version="1.0" encoding="utf-8"?>
<!-- Generator: Adobe Illustrator 25.4.1, SVG Export Plug-In . SVG Version: 6.00 Build 0)  -->
<svg version="1.1" id="Capa_1" xmlns="http://www.w3.org/2000/svg" xmlns:xlink="http://www.w3.org/1999/xlink" x="0px" y="0px"
	 viewBox="0 0 491.5 491.5" style="enable-background:new 0 0 491.5 491.5;" xml:space="preserve">
<style type="text/css">
	.st0{fill:#4D2557;}
</style>
<g id="Layer_x0020_1">
	<g id="_477832608">
		<path id="_477832848" class="st0" d="M313.1,149c-19.3,0-75.7,0-124.7,0V83.2c0-5.1,2.1-9.7,5.4-13c3.3-3.3,8-5.4,13-5.4h87.8
			c5.1,0,9.7,2.1,13,5.4c3.3,3.3,5.4,8,5.4,13L313.1,149L313.1,149z"/>
		<g>
			<path id="_477832800" class="st0" d="M421.9,101.6h-54.4c-3.2,0-6,1.8-7.3,4.5l-15.9,25.7l0,0c-0.7,1.1-1,2.2-1.2,3.4l-3.6,20.9
				H83.9c-0.5,0-1.3,0-2.2,0.1c-5.3,0.5-10.3,2.9-14,6.5c-3.9,3.8-6.3,8.9-6.3,14.6c0,0.4,0,1.1,0.1,1.9L72.9,296
				c0.6,5.9,3.1,11.3,7,15.2c3.9,3.9,9.2,6.4,15.3,6.4h215.9l-5.1,29h-213c-4.5,0-8.2,3.7-8.2,8.2s3.7,8.2,8.2,8.2h219.8
				c4,0,7.5-2.8,8.2-6.8l37.8-217.2l13-21h49.9c4.5,0,8.2-3.7,8.2-8.2C430.1,105.3,426.4,101.6,421.9,101.6L421.9,101.6z"/>
			<path id="_477833232" class="st0" d="M296,378.8c5.1,5.1,8.2,12.1,8.2,19.9c0,7.8-3.1,14.8-8.2,19.9c-5.1,5.1-12.1,8.2-19.9,8.2
				c-7.8,0-14.8-3.1-19.9-8.2c-5.1-5.1-8.2-12.1-8.2-19.9c0-7.8,3.1-14.8,8.2-19.9c5.1-5.1,12.1-8.2,19.9-8.2
				C283.9,370.6,290.9,373.8,296,378.8z"/>
			<path id="_477832680" class="st0" d="M173.4,378.8c5.1,5.1,8.2,12.1,8.2,19.9c0,7.8-3.1,14.8-8.2,19.9
				c-5.1,5.1-12.1,8.2-19.9,8.2s-14.8-3.1-19.9-8.2c-5.1-5.1-8.2-12.1-8.2-19.9c0-7.8,3.1-14.8,8.2-19.9c5.1-5.1,12.1-8.2,19.9-8.2
				C161.3,370.6,168.4,373.8,173.4,378.8z"/>
		</g>
		<path id="_477832320" class="st0" d="M180.2,149c-14.6,0-57.3,0-94.4,0V99.2c0-3.8,1.6-7.3,4.1-9.9c2.5-2.5,6-4.1,9.9-4.1h66.5
			c3.8,0,7.3,1.6,9.9,4.1c2.5,2.5,4.1,6,4.1,9.9L180.2,149L180.2,149z"/>
	</g>
</g>
</svg>
