<?xml version="1.0" encoding="utf-8"?>
<!-- Generator: Adobe Illustrator 25.4.1, SVG Export Plug-In . SVG Version: 6.00 Build 0)  -->
<svg version="1.1" id="Layer_1" xmlns="http://www.w3.org/2000/svg" xmlns:xlink="http://www.w3.org/1999/xlink" x="0px" y="0px"
	 viewBox="0 0 32 32" style="enable-background:new 0 0 32 32;" xml:space="preserve">
<style type="text/css">
	.st0{fill:#4D2557;}
	.st1{fill:#734DA2;}
</style>
<g>
	<path class="st0" d="M25.8,31H6.2c-1.3,0-2.5-0.6-3.2-1.7S2,27,2.4,25.7l0.7-2.1c0.7-2.2,2.7-3.8,5-4.1c2.1-0.3,5.2-0.6,8-0.6
		c2.8,0,5.9,0.3,8,0.6c2.3,0.3,4.2,1.9,5,4.1l0,0l0.7,2.1c0.4,1.2,0.2,2.5-0.5,3.6C28.3,30.4,27.1,31,25.8,31z M16,21
		c-2.7,0-5.7,0.3-7.7,0.5c-1.5,0.2-2.8,1.2-3.3,2.7l-0.7,2.1c-0.2,0.6-0.1,1.3,0.3,1.8s1,0.8,1.6,0.8h19.7c0.6,0,1.2-0.3,1.6-0.8
		c0.4-0.5,0.5-1.2,0.3-1.8L27,24.3c-0.5-1.5-1.8-2.5-3.3-2.7C21.7,21.3,18.7,21,16,21z"/>
</g>
<g>
	<path class="st0" d="M16,18c-4.7,0-8.5-3.8-8.5-8.5S11.3,1,16,1s8.5,3.8,8.5,8.5S20.7,18,16,18z M16,3c-3.6,0-6.5,2.9-6.5,6.5
		S12.4,16,16,16s6.5-2.9,6.5-6.5S19.6,3,16,3z"/>
</g>
<g>
	<path class="st1" d="M12,10.5c-0.5,0-1-0.4-1-1C11,8.2,11.5,7,12.4,6c0.9-1,2.2-1.5,3.5-1.5c0.6,0,1,0.4,1,1s-0.4,1-1,1
		c-0.8,0-1.5,0.3-2.1,0.9C13.3,8,13,8.7,13,9.5C13.1,10.1,12.6,10.5,12,10.5C12.1,10.5,12,10.5,12,10.5z"/>
</g>
</svg>
